<?xml version="1.0" encoding="UTF-8" standalone="no"?>
<svg
   xmlns:dc="http://purl.org/dc/elements/1.1/"
   xmlns:cc="http://creativecommons.org/ns#"
   xmlns:rdf="http://www.w3.org/1999/02/22-rdf-syntax-ns#"
   xmlns:svg="http://www.w3.org/2000/svg"
   xmlns="http://www.w3.org/2000/svg"
   xmlns:sodipodi="http://sodipodi.sourceforge.net/DTD/sodipodi-0.dtd"
   xmlns:inkscape="http://www.inkscape.org/namespaces/inkscape"
   viewBox="-178.3 659.6 347.42035 230.93864"
   id="svg3355"
   version="1.1"
   inkscape:version="0.91 r13725"
   sodipodi:docname="logo.svg"
   width="347.42035"
   height="230.93864">
  <metadata
     id="metadata3367">
    <rdf:RDF>
      <cc:Work
         rdf:about="">
        <dc:format>image/svg+xml</dc:format>
        <dc:type
           rdf:resource="http://purl.org/dc/dcmitype/StillImage" />
        <dc:title></dc:title>
      </cc:Work>
    </rdf:RDF>
  </metadata>
  <defs
     id="defs3365" />
  <sodipodi:namedview
     pagecolor="#ffffff"
     bordercolor="#666666"
     borderopacity="1"
     objecttolerance="10"
     gridtolerance="10"
     guidetolerance="10"
     inkscape:pageopacity="0"
     inkscape:pageshadow="2"
     inkscape:window-width="3840"
     inkscape:window-height="2031"
     id="namedview3363"
     showgrid="false"
     showguides="true"
     inkscape:guide-bbox="true"
     fit-margin-top="0"
     fit-margin-left="0"
     fit-margin-right="0"
     fit-margin-bottom="0"
     inkscape:zoom="2.5157143"
     inkscape:cx="179.10442"
     inkscape:cy="91.108404"
     inkscape:window-x="0"
     inkscape:window-y="55"
     inkscape:window-maximized="1"
     inkscape:current-layer="svg3355">
    <sodipodi:guide
       position="-358.06196,272.9653"
       orientation="0,1"
       id="guide3369" />
    <sodipodi:guide
       position="-172.03129,186.70749"
       orientation="1,0"
       id="guide3371" />
    <sodipodi:guide
       position="531.54622,311.52294"
       orientation="1,0"
       id="guide3373" />
    <sodipodi:guide
       position="479.47354,-91.145994"
       orientation="0,1"
       id="guide3375" />
  </sodipodi:namedview>
  <text
     xml:space="preserve"
     style="font-style:normal;font-weight:normal;font-size:75.34609985px;line-height:125%;font-family:sans-serif;letter-spacing:0px;word-spacing:0px;fill:#5fd3bc;fill-opacity:1;stroke:none;stroke-width:1px;stroke-linecap:butt;stroke-linejoin:miter;stroke-opacity:1"
     x="-186.9648"
     y="874.18854"
     id="text3377"
     sodipodi:linespacing="125%"><tspan
       sodipodi:role="line"
       id="tspan3379"
       x="-186.9648"
       y="874.18854"
       style="font-style:normal;font-variant:normal;font-weight:300;font-stretch:normal;font-family:'Source Code Pro for Powerline';-inkscape-font-specification:'Source Code Pro for Powerline Light';fill:#5fd3bc">flashapp</tspan></text>
  <g
     id="g4268"
     transform="matrix(0.31193664,0,0,0.31193664,-79.565583,659.64552)"
     style="fill:#5fd3bc;fill-opacity:1">
    <path
       d="M 356.683,42.757 C 284.76798,-24.996601 153.6413,-10.498051 99.02335,72.105369 66.996224,120.59863 73.445727,183.53679 92.358681,235.692 c 9.928829,28.7131 23.111419,56.14405 39.343449,81.77162 15.35853,29.08743 23.70301,62.79592 18.61644,95.65686 4.55462,18.91729 -20.25144,44.87552 -14.1665,56.02818 8.40149,-23.36127 27.67271,-42.10442 48.74052,-54.43667 -22.06766,2.31718 -36.95419,-28.4923 -25.49623,-45.86748 15.79572,-12.32491 31.07756,7.8243 45.18206,13.7206 22.82628,14.50427 53.36831,13.41299 75.2852,-2.32096 10.3671,-6.72489 43.72453,-30.10544 38.4853,-4.48685 -0.89073,21.76315 13.59765,44.57535 3.12651,65.43959 -4.39775,13.09006 -37.78128,2.21586 -31.0816,16.37148 17.9519,-7.47253 39.82803,15.27253 53.86496,4.8234 -8.647,-19.34541 -16.15466,-40.02968 -15.89574,-61.75059 -1.58351,-37.14862 13.7106,-72.10232 33.08014,-102.90065 27.59909,-51.68491 48.3345,-110.58983 41.29627,-169.92759 C 397.63353,95.361513 381.47209,64.481074 356.683,42.757 Z m -3.509,256.613 c -23.2616,38.25804 -58.23017,76.13722 -105.18846,81.24294 -45.18458,4.22737 -82.93124,-29.26705 -107.92013,-63.32803 -15.2792,-14.31347 32.47063,-20.06362 4.4865,-23.73348 -26.36912,-2.95641 -36.19037,-31.42288 -40.92305,-53.69392 -7.185568,-36.17447 -28.201387,-72.12008 -17.21772,-109.81383 4.739777,-27.64434 32.10869,-25.26884 53.56779,-27.80043 -1.7602,-5.77381 -41.472345,2.15959 -28.60857,-16.701285 11.02522,-4.289428 31.64628,5.608187 37.45787,-6.793977 -19.90137,3.554114 -44.75334,-12.478984 -21.56401,-29.569326 22.22605,-19.689916 50.71301,-32.025764 79.63437,-38.003755 70.01559,-13.5153524 151.80189,19.592718 179.89337,87.974568 2.91854,13.697255 -2.63172,31.332515 6.0094,41.143065 -16.06549,24.6916 -26.61865,-11.45709 -24.68033,-25.63981 -15.21858,-48.596271 -63.97236,-82.196338 -113.94946,-85.212848 0.97338,22.389472 38.66399,5.566384 49.3083,22.54232 33.82244,18.541056 60.36294,53.580518 62.06069,92.956878 -11.36324,-0.92263 -33.48183,21.21536 -9.48188,15.41505 19.99679,-8.86438 45.8236,8.90991 38.82117,31.50487 -7.9409,16.84609 -13.641,34.67177 -19.45925,52.52186 -6.4379,18.70178 -13.47923,37.23995 -22.2466,54.98914 z"
       id="path4270"
       inkscape:connector-curvature="0"
       style="fill:#5fd3bc;fill-opacity:1" />
    <path
       d="m 260.499,319.47 c -11.91993,-16.24019 -42.62504,15.16899 -13.0709,9.74759 5.6572,0.67004 15.35203,-2.17747 13.0709,-9.74759 z"
       id="path4272"
       inkscape:connector-curvature="0"
       style="fill:#5fd3bc;fill-opacity:1" />
    <path
       d="m 240.458,145.247 c 13.30267,-4.76138 6.82537,-42.55689 -4.14225,-34.1092 -2.66953,11.47357 0.77589,23.18019 4.14225,34.1092 z"
       id="path4274"
       inkscape:connector-curvature="0"
       style="fill:#5fd3bc;fill-opacity:1" />
    <path
       d="m 240.458,280.815 c 11.99659,-6.31503 7.96726,-44.48326 -3.90066,-38.52361 -3.60497,12.83969 0.51287,26.12226 3.90066,38.52361 z"
       id="path4276"
       inkscape:connector-curvature="0"
       style="fill:#5fd3bc;fill-opacity:1" />
  </g>
  <g
     id="g4278"
     transform="matrix(0.31193664,0,0,0.31193664,-75.587583,634.8755)" />
  <g
     id="g4280"
     transform="matrix(0.31193664,0,0,0.31193664,-75.587583,634.8755)" />
  <g
     id="g4282"
     transform="matrix(0.31193664,0,0,0.31193664,-75.587583,634.8755)" />
  <g
     id="g4284"
     transform="matrix(0.31193664,0,0,0.31193664,-75.587583,634.8755)" />
  <g
     id="g4286"
     transform="matrix(0.31193664,0,0,0.31193664,-75.587583,634.8755)" />
  <g
     id="g4288"
     transform="matrix(0.31193664,0,0,0.31193664,-75.587583,634.8755)" />
  <g
     id="g4290"
     transform="matrix(0.31193664,0,0,0.31193664,-75.587583,634.8755)" />
  <g
     id="g4292"
     transform="matrix(0.31193664,0,0,0.31193664,-75.587583,634.8755)" />
  <g
     id="g4294"
     transform="matrix(0.31193664,0,0,0.31193664,-75.587583,634.8755)" />
  <g
     id="g4296"
     transform="matrix(0.31193664,0,0,0.31193664,-75.587583,634.8755)" />
  <g
     id="g4298"
     transform="matrix(0.31193664,0,0,0.31193664,-75.587583,634.8755)" />
  <g
     id="g4300"
     transform="matrix(0.31193664,0,0,0.31193664,-75.587583,634.8755)" />
  <g
     id="g4302"
     transform="matrix(0.31193664,0,0,0.31193664,-75.587583,634.8755)" />
  <g
     id="g4304"
     transform="matrix(0.31193664,0,0,0.31193664,-75.587583,634.8755)" />
  <g
     id="g4306"
     transform="matrix(0.31193664,0,0,0.31193664,-75.587583,634.8755)" />
</svg>
